<svg xmlns="http://www.w3.org/2000/svg" viewBox="0 0 512 469.94"><defs><style>.b74a4c3b-d76e-4a59-8814-6de2181fb360{fill:#d71516;}</style></defs><g id="e64d8dcd-292b-46c0-b78e-699630d211ef" data-name="Capa 2"><g id="e8a2a979-c7c3-410d-9203-cadbe7b4f3d4" data-name="Capa 1"><path class="b74a4c3b-d76e-4a59-8814-6de2181fb360" d="M85.33,196.27H196.27a8.54,8.54,0,0,0,0-17.07H85.33a8.54,8.54,0,0,0,0,17.07Z"/><path class="b74a4c3b-d76e-4a59-8814-6de2181fb360" d="M307.2,230.4H85.33a8.54,8.54,0,0,0,0,17.07H307.2a8.54,8.54,0,0,0,0-17.07Z"/><path class="b74a4c3b-d76e-4a59-8814-6de2181fb360" d="M307.2,281.6H85.33a8.54,8.54,0,0,0,0,17.07H307.2a8.54,8.54,0,0,0,0-17.07Z"/><path class="b74a4c3b-d76e-4a59-8814-6de2181fb360" d="M461.41.6,170.07,0a50.66,50.66,0,0,0-50.6,50.6V94.33l-68.87.14A50.66,50.66,0,0,0,0,145.08v180.4a50.65,50.65,0,0,0,50.6,50.59h51.8v85.34a8.54,8.54,0,0,0,5.46,8,8.64,8.64,0,0,0,3.07.57,8.55,8.55,0,0,0,6.32-2.79l82.81-91.09,141.87-.58a50.66,50.66,0,0,0,50.6-50.6v-1l44.89,49.37a8.55,8.55,0,0,0,6.31,2.79,8.66,8.66,0,0,0,3.08-.57,8.54,8.54,0,0,0,5.46-8V282.21h9.13A50.65,50.65,0,0,0,512,231.62V51.2A50.66,50.66,0,0,0,461.41.6ZM375.47,324.87A33.58,33.58,0,0,1,341.9,358.4l-145.67.6a8.54,8.54,0,0,0-6.28,2.79l-70.48,77.54v-71.8a8.53,8.53,0,0,0-8.54-8.53H50.6a33.57,33.57,0,0,1-33.53-33.53V145.07a33.57,33.57,0,0,1,33.55-33.54l77.38-.16h0l213.91-.45a33.58,33.58,0,0,1,33.54,33.54V324.87ZM494.93,231.6a33.57,33.57,0,0,1-33.53,33.53H443.73a8.52,8.52,0,0,0-8.53,8.53v71.8l-42.67-46.93V144.47a50.66,50.66,0,0,0-50.62-50.6l-205.38.41V50.59a33.57,33.57,0,0,1,33.52-33.53l291.34.6h0a33.57,33.57,0,0,1,33.53,33.53V231.6Z"/></g></g></svg>